<svg id="Layer_1" data-name="Layer 1" xmlns="http://www.w3.org/2000/svg" viewBox="0 0 512 512"><defs><style>.cls-1{fill:blue;}</style></defs><title>linkedin</title><path class="cls-1" d="M256,30a226.07,226.07,0,0,1,88,434.25A226.07,226.07,0,0,1,168,47.75,224.57,224.57,0,0,1,256,30m0-30C114.61,0,0,114.61,0,256S114.61,512,256,512,512,397.39,512,256,397.39,0,256,0Z"/><path class="cls-1" d="M376.77,360.25H325.25c0-2.1,0-4,0-5.94,0-25.16.14-50.31-.1-75.47a73.2,73.2,0,0,0-2.26-18.74c-5-18-25.34-24.51-40.27-13.2-8.06,6.1-12.07,14.35-12,24.59.07,27.65,0,55.31,0,83,0,1.8,0,3.6,0,5.7H219.06V204.73h51.45v20.59a13.55,13.55,0,0,0,1.77-1.5c15.05-21.45,36.07-26.68,60.36-21.37,24.1,5.26,36.84,21.93,41.87,45.06a112.94,112.94,0,0,1,2.41,22.78c.28,28.65.13,57.31.13,86C377.05,357.4,376.89,358.55,376.77,360.25Z"/><path class="cls-1" d="M189.54,360.16H138.4V204.6h51.15"/><path class="cls-1" d="M164,182.9c-20.7,0-34-17.61-27.32-36.26,5-14,21.67-21,37.88-16.11,14,4.25,21.68,18.32,17.93,32.74C189.33,175.29,178.32,182.87,164,182.9Z"/></svg>