<svg id="Layer_1" data-name="Layer 1" xmlns="http://www.w3.org/2000/svg" viewBox="0 0 512 512"><defs><style>.cls-1{fill:blue;}</style></defs><title>mail</title><path class="cls-1" d="M256,30a226.07,226.07,0,0,1,88,434.25A226.07,226.07,0,0,1,168,47.75,224.57,224.57,0,0,1,256,30m0-30C114.61,0,0,114.61,0,256S114.61,512,256,512,512,397.39,512,256,397.39,0,256,0Z"/><path class="cls-1" d="M368.51,151.75h-225A27.75,27.75,0,0,0,121.2,162.9L245.93,284.4a14.55,14.55,0,0,0,20.13,0l123.3-123.3A28.29,28.29,0,0,0,368.51,151.75Z"/><path class="cls-1" d="M313.87,256.72l82,79.44c0-1.08.36-2.52.36-3.59V179.43a20.5,20.5,0,0,0-.36-4.67Z"/><path class="cls-1" d="M197.77,257.44l-82-79.8V333.29Z"/><path class="cls-1" d="M389.72,350.18l-86.27-83-27.32,27.32A27.41,27.41,0,0,1,256,302.73a28.9,28.9,0,0,1-20.13-8.27l-27.68-27-87.35,80.88a27.59,27.59,0,0,0,22.65,11.86H368.15A27.52,27.52,0,0,0,389.72,350.18Z"/></svg>