<svg id="Layer_1" data-name="Layer 1" xmlns="http://www.w3.org/2000/svg" viewBox="0 0 1694.58 891.69"><defs><style>.cls-1{fill:#fff;}.cls-2{fill:blue;}</style></defs><title>MAITELOGOWHITERGB</title><polygon class="cls-1" points="1314.68 714.18 1127.57 549.66 946.17 709.15 934.73 696.15 1127.57 526.6 1314.68 691.12 1501.77 526.6 1694.58 696.15 1683.15 709.15 1501.77 549.66 1314.68 714.18"/><polygon class="cls-1" points="1314.68 891.69 1127.57 727.17 946.17 886.66 934.73 873.66 1127.57 704.11 1314.68 868.63 1501.77 704.11 1694.58 873.66 1683.15 886.66 1501.77 727.17 1314.68 891.69"/><polygon class="cls-2" points="379.94 187.58 192.83 23.06 11.44 182.55 0 169.55 192.83 0 379.94 164.52 567.03 0 759.84 169.55 748.41 182.55 567.03 23.06 379.94 187.58"/><polygon class="cls-2" points="379.94 365.09 192.83 200.57 11.44 360.06 0 347.06 192.83 177.51 379.94 342.03 567.03 177.51 759.84 347.06 748.41 360.06 567.03 200.57 379.94 365.09"/></svg>