<svg id="Layer_1" data-name="Layer 1" xmlns="http://www.w3.org/2000/svg" viewBox="0 0 512 512"><defs><style>.cls-1{fill:blue;}</style></defs><title>tumbler</title><path class="cls-1" d="M256,30a226.07,226.07,0,0,1,88,434.25A226.07,226.07,0,0,1,168,47.75,224.57,224.57,0,0,1,256,30m0-30C114.61,0,0,114.61,0,256S114.61,512,256,512,512,397.39,512,256,397.39,0,256,0Z"/><path class="cls-1" d="M332.59,363.29A150.54,150.54,0,0,1,303.35,374,124,124,0,0,1,275,377q-17.26,0-30.53-4.36a65.82,65.82,0,0,1-22.64-12.43q-9.4-8.08-13-17.18t-3.62-26.35V228.36H177.41V192.7a73.77,73.77,0,0,0,25.42-13.82,69.15,69.15,0,0,0,17-21.64q6.41-12.6,8.81-32.1h35.83v63.66h59.77v39.55H264.46v64.58q0,21.91,2.33,28.13a19.15,19.15,0,0,0,8.63,9.93,36.52,36.52,0,0,0,19.12,5q19.11,0,38-12.43Z"/></svg>